$MeshFormat
4.1 0 8
$EndMeshFormat
$PhysicalNames
7
1 1 "inlet"
1 2 "up"
1 3 "outlet"
1 4 "down"
1 5 "obstacle"
2 6 "fluid"
2 7 "obstacle_surf"
$EndPhysicalNames
$Entities
5 5 1 0
1 0 0 0 0 
2 2.2 0 0 0 
3 2.2 0.41 0 0 
4 0 0.41 0 0 
5 0.25 0.2 0 0 
1 -1.000000000583867e-07 -1e-07 -1e-07 2.2000001 1e-07 1e-07 1 4 2 1 -2 
2 2.1999999 -1.000000000028756e-07 -1e-07 2.2000001 0.4100001 1e-07 1 3 2 2 -3 
3 -1.000000000583867e-07 0.4099999 -1e-07 2.2000001 0.4100001 1e-07 1 2 2 3 -4 
4 -1e-07 -1.000000000028756e-07 -1e-07 1e-07 0.4100001 1e-07 1 1 2 4 -1 
5 0.1499999 0.1499999 -1e-07 0.2500001 0.2500001 1e-07 1 5 2 5 -5 
2 -1.000000000583867e-07 -1.000000000028756e-07 -1e-07 2.2000001 0.4100001 1e-07 1 7 5 1 2 3 4 -5 
$EndEntities
$Nodes
11 344 1 344
0 1 0 1
1
0 0 0
0 2 0 1
2
2.2 0 0
0 3 0 1
3
2.2 0.41 0
0 4 0 1
4
0 0.41 0
0 5 0 1
5
0.25 0.2 0
1 1 0 21
6
7
8
9
10
11
12
13
14
15
16
17
18
19
20
21
22
23
24
25
26
0.1000000000000001 0 0
0.2000000000000003 0 0
0.3000000000000004 0 0
0.4000000000000007 0 0
0.5000000000000008 0 0
0.600000000000001 0 0
0.7000000000000012 0 0
0.8000000000000015 0 0
0.9000000000000017 0 0
1.000000000000002 0 0
1.100000000000001 0 0
1.200000000000001 0 0
1.300000000000001 0 0
1.400000000000001 0 0
1.5 0 0
1.6 0 0
1.7 0 0
1.8 0 0
1.900000000000001 0 0
2.000000000000001 0 0
2.100000000000001 0 0
1 2 0 4
27
28
29
30
2.2 0.08199999999999999 0
2.2 0.164 0
2.2 0.2459999999999998 0
2.2 0.3279999999999998 0
1 3 0 21
31
32
33
34
35
36
37
38
39
40
41
42
43
44
45
46
47
48
49
50
51
2.1 0.41 0
2 0.41 0
1.9 0.41 0
1.799999999999999 0.41 0
1.699999999999999 0.41 0
1.599999999999999 0.41 0
1.499999999999999 0.41 0
1.399999999999999 0.41 0
1.299999999999998 0.41 0
1.199999999999998 0.41 0
1.099999999999999 0.41 0
0.9999999999999989 0.41 0
0.8999999999999992 0.41 0
0.7999999999999996 0.41 0
0.6999999999999997 0.41 0
0.6000000000000001 0.41 0
0.5 0.41 0
0.3999999999999997 0.41 0
0.2999999999999996 0.41 0
0.1999999999999993 0.41 0
0.09999999999999964 0.41 0
1 4 0 4
52
53
54
55
0 0.328 0
0 0.2459999999999999 0
0 0.1640000000000002 0
0 0.08200000000000013 0
1 5 0 49
56
57
58
59
60
61
62
63
64
65
66
67
68
69
70
71
72
73
74
75
76
77
78
79
80
81
82
83
84
85
86
87
88
89
90
91
92
93
94
95
96
97
98
99
100
101
102
103
104
0.2496057350657239 0.2062666616782152 0
0.2484291580564316 0.2124344943582428 0
0.2464888242944126 0.218406227634234 0
0.2438153340021932 0.2240876837050858 0
0.2404508497187474 0.2293892626146237 0
0.2364484313710705 0.2342273552964345 0
0.2318711994874344 0.2385256621387895 0
0.2267913397489497 0.2422163962751008 0
0.2212889645782535 0.245241352623301 0
0.2154508497187473 0.2475528258147577 0
0.2093690657292861 0.2491143625364345 0
0.2031395259764655 0.2499013364214136 0
0.1968604740235341 0.2499013364214136 0
0.1906309342707135 0.2491143625364344 0
0.1845491502812524 0.2475528258147576 0
0.1787110354217461 0.2452413526233009 0
0.1732086602510499 0.2422163962751006 0
0.1681288005125653 0.2385256621387893 0
0.1635515686289293 0.2342273552964343 0
0.1595491502812525 0.2293892626146235 0
0.1561846659978067 0.2240876837050856 0
0.1535111757055874 0.2184062276342337 0
0.1515708419435684 0.2124344943582425 0
0.1503942649342761 0.206266661678215 0
0.15 0.1999999999999998 0
0.1503942649342762 0.1937333383217846 0
0.1515708419435685 0.1875655056417571 0
0.1535111757055875 0.1815937723657659 0
0.1561846659978069 0.1759123162949141 0
0.1595491502812527 0.1706107373853762 0
0.1635515686289296 0.1657726447035655 0
0.1681288005125656 0.1614743378612105 0
0.1732086602510503 0.1577836037248992 0
0.1787110354217465 0.154758647376699 0
0.1845491502812528 0.1524471741852423 0
0.1906309342707139 0.1508856374635655 0
0.1968604740235345 0.1500986635785864 0
0.2031395259764658 0.1500986635785864 0
0.2093690657292863 0.1508856374635656 0
0.2154508497187475 0.1524471741852423 0
0.2212889645782537 0.1547586473766991 0
0.2267913397489499 0.1577836037248993 0
0.2318711994874345 0.1614743378612106 0
0.2364484313710706 0.1657726447035656 0
0.2404508497187474 0.1706107373853764 0
0.2438153340021932 0.1759123162949143 0
0.2464888242944126 0.1815937723657662 0
0.2484291580564316 0.1875655056417573 0
0.2496057350657239 0.1937333383217848 0
2 2 0 240
105
106
107
108
109
110
111
112
113
114
115
116
117
118
119
120
121
122
123
124
125
126
127
128
129
130
131
132
133
134
135
136
137
138
139
140
141
142
143
144
145
146
147
148
149
150
151
152
153
154
155
156
157
158
159
160
161
162
163
164
165
166
167
168
169
170
171
172
173
174
175
176
177
178
179
180
181
182
183
184
185
186
187
188
189
190
191
192
193
194
195
196
197
198
199
200
201
202
203
204
205
206
207
208
209
210
211
212
213
214
215
216
217
218
219
220
221
222
223
224
225
226
227
228
229
230
231
232
233
234
235
236
237
238
239
240
241
242
243
244
245
246
247
248
249
250
251
252
253
254
255
256
257
258
259
260
261
262
263
264
265
266
267
268
269
270
271
272
273
274
275
276
277
278
279
280
281
282
283
284
285
286
287
288
289
290
291
292
293
294
295
296
297
298
299
300
301
302
303
304
305
306
307
308
309
310
311
312
313
314
315
316
317
318
319
320
321
322
323
324
325
326
327
328
329
330
331
332
333
334
335
336
337
338
339
340
341
342
343
344
0.4542131256502171 0.325181703165706 0
0.1498020473428143 0.223871874402729 0
0.1430040610324043 0.2030805747935425 0
0.1483191814621595 0.1823892201947534 0
2.128985916889676 0.2049999999999999 0
1.050006269698758 0.3232055627551954 0
1.550947274829556 0.08493179572174825 0
0.6475421024453186 0.3217050036635243 0
1.349998095672134 0.0854076411026333 0
0.8499440618941416 0.3233198011153579 0
1.752162854551926 0.08590382141298372 0
1.950652857874921 0.3240347669451393 0
1.149820278713357 0.08589950257659065 0
0.548868879511892 0.08487607491659906 0
1.651630280915573 0.3214062764339253 0
0.9497274097610898 0.08597714682460088 0
1.250107374411702 0.3226781466246362 0
1.4504108126226 0.3218127417195182 0
0.7591255078801866 0.0919070545962309 0
0.3529595221590025 0.09245391048731169 0
0.2548439845104685 0.2040554226984608 0
0.2557726911452307 0.1891207885434206 0
0.2500723644361454 0.1764377338205063 0
0.2442958433174403 0.163938090773359 0
1.940351131524434 0.08994794664263252 0
0.06438758703731184 0.2974102819768439 0
0.161016097913727 0.240410378772528 0
0.06388388838606462 0.2173498595302772 0
0.07602536928321646 0.1486437049740596 0
0.2699106391502284 0.08051285799106314 0
0.2153198352610695 0.1446458112597275 0
0.225533939591756 0.1493542528328844 0
0.1895382255898473 0.07525731319494464 0
0.1661474669956361 0.1534353091573903 0
0.1803767796280866 0.1480408444237402 0
0.155779982038602 0.1640123814213242 0
0.1923415239333126 0.1444789127779328 0
0.2455619555374529 0.3461412691257948 0
0.2480699876586239 0.2304817378474804 0
0.1866879828134084 0.2553140340811292 0
0.2391613975937603 0.2413833311424177 0
0.2017671611471442 0.2556096667941851 0
0.2267987518780056 0.248828087303995 0
0.2133476544398152 0.2557483952331751 0
0.1626542553897847 0.3421904013056313 0
0.3315012517738772 0.3348058542340268 0
0.2961876235259029 0.2851665878590143 0
0.2031525470728338 0.3141886232438271 0
0.111264852630083 0.07729683895376946 0
0.4510451183612015 0.0834137795963554 0
0.5010825635217285 0.1648959734678766 0
0.5958864396695576 0.1673448934039598 0
0.4037562050285143 0.1689048782474005 0
0.5426451214483858 0.2498780217905293 0
0.4483190064110134 0.2388150107954594 0
0.3875199453306715 0.2322834149934848 0
0.3408130367231867 0.1721865344464236 0
2.055450582670456 0.3244107754900685 0
1.998354888164349 0.2355953478963245 0
1.897994206675612 0.2396972160007119 0
1.851238816365623 0.3232059351436957 0
1.80275277858176 0.2400079149449074 0
1.846588511132788 0.1515722835844027 0
1.751781833671441 0.3228132636371636 0
1.703235288627901 0.2390969116268895 0
1.603046503395247 0.2373546545220993 0
1.652962348000376 0.14993327165501 0
2.053958085075063 0.08401030604477205 0
1.550366267720407 0.3193268187664301 0
1.501710046264774 0.2375491020238792 0
1.400891502901546 0.2374376174238119 0
1.451687828446131 0.1493456294779415 0
1.350342987368246 0.3215437146054736 0
1.300397929273916 0.2387107275142764 0
1.199920977052321 0.2390485897168143 0
1.250454244192801 0.1502380221272885 0
1.150054636273992 0.3233037866767108 0
1.099858384413744 0.2400326050029467 0
0.9997099137882803 0.2402853462801069 0
1.04990898359362 0.1510630357761907 0
0.9499185929682178 0.3238901857513407 0
0.8997784390191444 0.2407185435731304 0
0.8015513130140156 0.2381768044191246 0
0.8495483521385692 0.1500922640420455 0
0.6491780133429161 0.08719486568427157 0
0.6889824727406516 0.1667860487251133 0
0.7528452659686216 0.3257780201805612 0
2.131885591512678 0.1258414713819936 0
2.13216046849408 0.2838953755404798 0
0.1005157716314786 0.3421224816693265 0
0.1286403269398064 0.295713172546087 0
0.1031659878217147 0.2597593023689225 0
0.1358741408763147 0.2617119079795762 0
0.1585823184511781 0.2792345482972055 0
0.1736599772254348 0.2481026510226005 0
0.1252831432980122 0.2346408947703658 0
0.1441964620101248 0.2445526660203655 0
0.1546344230719869 0.2570957395928236 0
0.1531841975138521 0.2366957193531681 0
0.5488800699087842 0.3433529457239519 0
0.1698219977813249 0.2676715936438097 0
0.1863369138524472 0.2802742906902886 0
0.2136386585224644 0.2823793543024325 0
0.2373792750055361 0.2961530327064033 0
0.2330920198531946 0.2708095034589093 0
0.2608372685764849 0.2793534776283393 0
0.2521872361156574 0.2607539512252437 0
0.2748721561851868 0.255428930927153 0
0.3081320213921915 0.2526337183124766 0
0.2860492158553 0.2259184060372349 0
0.2531627804265629 0.2180459530922231 0
0.3181503737210089 0.2196175949593931 0
0.2968898089204466 0.198339884795157 0
0.2755801327604304 0.2065032130315937 0
0.2779201018339442 0.1827823034739572 0
0.3012781598127851 0.1716380126894486 0
0.2778832688774123 0.1561702073552265 0
0.3096555287972633 0.1437322611414713 0
0.2672566316135867 0.2369464317837351 0
0.2785198195561022 0.1248500272898904 0
0.2579604159655962 0.1423265669374155 0
0.333687419932056 0.2831034853920487 0
0.3835801301592643 0.2878408034352239 0
0.3529130820811228 0.1326300182566182 0
0.260772562234563 0.1586872505997384 0
0.2656518360029165 0.1702336042753617 0
0.2525860329194847 0.2425397656438316 0
0.2372775607005062 0.2523978453381053 0
0.3915871408808076 0.106711339918026 0
0.2645949739347104 0.1937898645428219 0
0.2534391364045498 0.1671252399895024 0
0.2551158862453445 0.2107628715246813 0
0.2613843492472102 0.2167694714139029 0
0.257348272728948 0.227375272772097 0
0.2612723747126661 0.2047250652654045 0
0.165006624338262 0.2469367470218022 0
0.2560149598947999 0.1975707465619821 0
0.3116224382058341 0.1061452609116133 0
0.3386257293815439 0.05587769039873874 0
1.998123005404523 0.1484201228584462 0
0.2493251326211996 0.1549071754513542 0
0.2397580660236243 0.1454655099906798 0
0.2459234537934826 0.1223904065946772 0
0.2214338143669971 0.1221424162308327 0
0.2264777056615256 0.09473946417780402 0
0.2395798850815553 0.155400769621457 0
0.2028421895000178 0.3531300734188133 0
0.05790547961091419 0.08604417578134106 0
0.1166510619870837 0.1262387794902746 0
0.1036606516435618 0.172078653482717 0
0.1289124182927933 0.1573708551866024 0
0.09638430822497801 0.2237347247063223 0
0.1197780561652901 0.2097942595583289 0
0.1333285382929215 0.2200306101665286 0
0.1489397902760693 0.09587646812621765 0
0.1532969841342079 0.1268774279432103 0
0.1753989906891704 0.111194831135458 0
0.1448254728150333 0.1458218693723122 0
0.201752225860655 0.1093654769221847 0
0.2035660094599264 0.1277429157408477 0
0.206321730487477 0.1388089952721594 0
0.2371853140803204 0.05010192707276237 0
1.84782049944183 0.0654848103280038 0
0.2433433398523372 0.2356042905089576 0
0.6386180509524335 0.2314360958936975 0
0.8516802539559698 0.06559529309257545 0
0.06956526706660227 0.1815502428094784 0
0.9497346196601408 0.1736272672992148 0
0.2592049358710418 0.1807215617335679 0
1.75154035617895 0.1733028406448387 0
0.1499485736992 0.04968612405498632 0
1.049891334413614 0.06458793703547644 0
0.1525541048077773 0.2291576291659496 0
0.1437808583466975 0.2300097989838005 0
0.1432963663847622 0.2170647656658116 0
0.1361033255677975 0.2093839316101307 0
0.1348558169538424 0.1970793946186475 0
0.1161878180687929 0.1906401306360417 0
0.1301360134265875 0.1788363365914873 0
0.1397623915964474 0.1683977468117458 0
0.1497169915918085 0.1695773358653085 0
0.1448737719725618 0.2096460856211885 0
0.1499029971418653 0.1766509587060479 0
0.1791373944397489 0.2524744927850769 0
0.1806849722878023 0.2623938643896634 0
0.191998493491061 0.2633384459526213 0
1.149992573593168 0.1732563510399662 0
0.2325928987772685 0.1547435358337177 0
0.2323800498817312 0.2446702644396817 0
1.651214495476372 0.06415377775794837 0
1.250054523715659 0.06430903316130249 0
1.350685920097306 0.1722279275291903 0
0.193407300775569 0.2549775530285394 0
1.552070800187217 0.1718228906801356 0
0.2497770398221481 0.2236793750102241 0
1.450526639789564 0.06393701326046458 0
0.1715878487055666 0.1328061761802983 0
0.2467243938763015 0.1703477979800535 0
0.05113375860875746 0.3607903948065957 0
0.2769774995201914 0.3149575772919737 0
0.7674603155127153 0.1712491784507078 0
0.7173535311091426 0.2482067985727128 0
0.17049089819076 0.255779181409296 0
0.3473297004634524 0.2477108227437443 0
0.1446814977531936 0.1966861497792872 0
0.143055789246567 0.1875859418758562 0
2.077130598314517 0.2425802997853746 0
2.064739680893468 0.1735745913278185 0
0.1887889722725995 0.1260603001070503 0
0.20428725077417 0.2676290999096178 0
0.2173435900616871 0.2668475332817319 0
0.2240387725701058 0.2576926954967655 0
0.1599474074122229 0.1431924340466699 0
0.2525876047926058 0.1829084657724968 0
0.06840322605684945 0.2520772426798215 0
1.930541536786522 0.1701867985802228 0
2.137522210232907 0.3512612302061096 0
0.2903976227018942 0.3481252421982636 0
2.137168735317548 0.05837035548535313 0
0.1715467493835836 0.1467878365549555 0
0.3529391081639794 0.209136329328668 0
0.2690886863852486 0.2245077389359338 0
0.1552257892766351 0.245646199298875 0
0.2273524219662664 0.136505287174498 0
0.3829395238842149 0.3537637771322131 0
0.1838181756552536 0.1399826412910193 0
0.1434822274109058 0.1772395900075332 0
0.2151835224375818 0.1342731539934912 0
0.09415790374324517 0.1976342909245713 0
0.3898201520472787 0.06439499234361717 0
0.148613626418707 0.1593925584320548 0
0.1581420464030996 0.1561573621420753 0
0.3216073398511663 0.1918425880929051 0
0.1697395234309603 0.3047263737214738 0
0.2203003131971133 0.2512886486911276 0
0.1863433127537238 0.1471670420283001 0
0.1063123753016639 0.1510829982834134 0
0.2068622328263046 0.1455978744675686 0
0.2000900064702023 0.1444693076806056 0
0.1959563792782791 0.1357284891068916 0
$EndNodes
$Elements
6 688 1 688
1 1 1 22
1 1 6 
2 6 7 
3 7 8 
4 8 9 
5 9 10 
6 10 11 
7 11 12 
8 12 13 
9 13 14 
10 14 15 
11 15 16 
12 16 17 
13 17 18 
14 18 19 
15 19 20 
16 20 21 
17 21 22 
18 22 23 
19 23 24 
20 24 25 
21 25 26 
22 26 2 
1 2 1 5
23 2 27 
24 27 28 
25 28 29 
26 29 30 
27 30 3 
1 3 1 22
28 3 31 
29 31 32 
30 32 33 
31 33 34 
32 34 35 
33 35 36 
34 36 37 
35 37 38 
36 38 39 
37 39 40 
38 40 41 
39 41 42 
40 42 43 
41 43 44 
42 44 45 
43 45 46 
44 46 47 
45 47 48 
46 48 49 
47 49 50 
48 50 51 
49 51 4 
1 4 1 5
50 4 52 
51 52 53 
52 53 54 
53 54 55 
54 55 1 
1 5 1 50
55 5 56 
56 56 57 
57 57 58 
58 58 59 
59 59 60 
60 60 61 
61 61 62 
62 62 63 
63 63 64 
64 64 65 
65 65 66 
66 66 67 
67 67 68 
68 68 69 
69 69 70 
70 70 71 
71 71 72 
72 72 73 
73 73 74 
74 74 75 
75 75 76 
76 76 77 
77 77 78 
78 78 79 
79 79 80 
80 80 81 
81 81 82 
82 82 83 
83 83 84 
84 84 85 
85 85 86 
86 86 87 
87 87 88 
88 88 89 
89 89 90 
90 90 91 
91 91 92 
92 92 93 
93 93 94 
94 94 95 
95 95 96 
96 96 97 
97 97 98 
98 98 99 
99 99 100 
100 100 101 
101 101 102 
102 102 103 
103 103 104 
104 104 5 
2 2 2 584
105 74 203 75 
106 86 336 87 
107 252 253 133 
108 1 252 55 
109 54 271 132 
110 105 159 158 
111 130 196 195 
112 53 319 130 
113 112 204 158 
114 310 331 108 
115 135 328 136 
116 51 194 149 
117 212 223 214 
118 253 341 133 
119 235 273 127 
120 88 324 89 
121 157 325 161 
122 148 314 146 
123 237 239 218 
124 54 252 133 
125 220 222 161 
126 77 279 78 
127 161 228 157 
128 98 250 99 
129 214 218 217 
130 143 238 231 
131 158 269 112 
132 196 197 195 
133 161 337 220 
134 53 130 52 
135 197 202 198 
136 145 268 231 
137 130 195 194 
138 194 303 130 
139 158 204 105 
140 134 266 8 
141 153 252 6 
142 159 227 160 
143 231 232 145 
144 130 303 52 
145 150 304 151 
146 218 326 237 
147 246 292 136 
148 232 316 147 
149 131 203 74 
150 51 149 50 
151 50 142 49 
152 160 325 157 
153 159 160 157 
154 54 132 53 
155 231 268 143 
156 195 338 149 
157 126 273 234 
158 155 157 154 
159 243 334 124 
160 234 241 126 
161 154 334 9 
162 283 310 281 
163 194 195 149 
164 324 330 139 
165 105 227 159 
166 133 271 54 
167 84 285 85 
168 261 301 260 
169 255 283 254 
170 46 204 112 
171 125 241 239 
172 224 247 134 
173 153 253 252 
174 115 267 167 
175 167 274 115 
176 281 310 309 
177 218 234 219 
178 212 214 213 
179 9 334 243 
180 151 226 150 
181 118 154 10 
182 10 154 9 
183 140 336 86 
184 48 105 47 
185 150 329 49 
186 111 294 171 
187 211 231 212 
188 99 250 128 
189 283 331 310 
190 118 155 154 
191 171 298 111 
192 113 296 180 
193 214 217 216 
194 117 291 184 
195 111 298 176 
196 239 241 234 
197 120 272 188 
198 188 270 120 
199 184 276 117 
200 157 233 154 
201 106 279 77 
202 180 295 113 
203 240 307 202 
204 123 270 188 
205 87 336 138 
206 122 175 174 
207 212 231 223 
208 155 159 157 
209 120 276 184 
210 184 272 120 
211 8 243 134 
212 222 228 161 
213 176 300 111 
214 198 338 195 
215 167 267 129 
216 249 263 137 
217 188 305 123 
218 132 319 53 
219 290 314 206 
220 37 173 36 
221 122 174 173 
222 117 295 180 
223 113 300 176 
224 9 243 8 
225 121 179 178 
226 253 262 255 
227 8 266 7 
228 123 190 189 
229 247 249 134 
230 4 303 51 
231 221 229 225 
232 180 291 117 
233 119 170 169 
234 39 177 38 
235 119 169 168 
236 115 274 171 
237 55 252 54 
238 176 296 113 
239 197 198 195 
240 121 178 177 
241 171 294 115 
242 134 242 224 
243 116 162 32 
244 122 173 37 
245 36 173 119 
246 119 168 35 
247 255 284 283 
248 25 172 129 
249 209 316 232 
250 34 168 165 
251 234 273 219 
252 38 177 122 
253 121 177 39 
254 26 172 25 
255 34 165 33 
256 32 162 31 
257 41 181 40 
258 175 176 174 
259 116 163 162 
260 123 189 12 
261 35 168 34 
262 110 183 182 
263 33 116 32 
264 226 308 227 
265 89 324 139 
266 122 177 175 
267 156 158 155 
268 257 333 282 
269 110 182 181 
270 12 189 11 
271 179 180 178 
272 133 341 254 
273 129 320 167 
274 170 171 169 
275 158 159 155 
276 110 181 41 
277 40 181 121 
278 48 329 105 
279 119 173 170 
280 33 165 116 
281 121 181 179 
282 219 230 221 
283 257 258 200 
284 168 169 166 
285 165 168 166 
286 183 184 182 
287 25 129 24 
288 43 185 42 
289 110 185 183 
290 202 327 240 
291 114 185 43 
292 42 185 110 
293 114 187 186 
294 173 174 170 
295 114 186 185 
296 177 178 175 
297 187 188 186 
298 181 182 179 
299 185 186 183 
300 17 117 16 
301 42 110 41 
302 38 122 37 
303 13 123 12 
304 15 120 14 
305 40 121 39 
306 36 119 35 
307 11 118 10 
308 23 115 22 
309 44 114 43 
310 46 112 45 
311 19 113 18 
312 21 111 20 
313 114 191 187 
314 44 191 114 
315 112 191 45 
316 45 191 44 
317 256 257 200 
318 152 208 142 
319 116 164 163 
320 11 189 118 
321 166 167 164 
322 218 219 217 
323 116 165 164 
324 189 190 156 
325 165 166 164 
326 147 293 232 
327 80 309 81 
328 176 298 174 
329 232 293 145 
330 138 324 88 
331 259 260 253 
332 228 233 157 
333 214 326 218 
334 135 342 265 
335 219 273 230 
336 105 204 47 
337 180 296 178 
338 226 227 150 
339 200 201 197 
340 29 109 28 
341 30 193 29 
342 250 292 246 
343 118 189 156 
344 49 329 48 
345 28 192 27 
346 148 315 314 
347 47 204 46 
348 209 211 210 
349 246 328 247 
350 118 156 155 
351 149 251 50 
352 240 327 131 
353 203 277 75 
354 278 279 106 
355 260 262 253 
356 171 274 169 
357 184 291 182 
358 227 308 160 
359 129 267 24 
360 23 267 115 
361 221 225 224 
362 188 272 186 
363 254 283 282 
364 13 270 123 
365 120 270 14 
366 149 338 152 
367 7 275 6 
368 15 276 120 
369 117 276 16 
370 31 321 3 
371 115 294 22 
372 21 294 111 
373 2 323 26 
374 17 295 117 
375 113 295 18 
376 19 300 113 
377 111 300 20 
378 183 272 184 
379 163 312 311 
380 166 274 167 
381 85 285 140 
382 209 232 211 
383 206 314 207 
384 179 291 180 
385 207 315 209 
386 207 209 208 
387 156 269 158 
388 170 298 171 
389 201 327 202 
390 29 193 109 
391 164 320 163 
392 109 192 28 
393 230 273 235 
394 175 296 176 
395 231 238 223 
396 214 216 213 
397 136 328 246 
398 219 221 220 
399 244 312 163 
400 196 200 197 
401 254 271 133 
402 257 281 280 
403 264 313 263 
404 112 306 191 
405 162 321 31 
406 202 205 198 
407 205 289 206 
408 26 323 172 
409 172 244 129 
410 135 332 328 
411 56 236 57 
412 206 207 152 
413 225 247 224 
414 153 259 253 
415 3 321 30 
416 27 323 2 
417 193 321 162 
418 123 305 190 
419 104 241 5 
420 257 282 281 
421 98 292 250 
422 163 320 244 
423 245 250 246 
424 217 337 216 
425 187 306 305 
426 282 283 281 
427 128 245 235 
428 221 230 229 
429 130 319 196 
430 143 299 238 
431 279 286 78 
432 172 323 192 
433 72 240 73 
434 196 319 256 
435 137 275 7 
436 305 306 190 
437 247 328 248 
438 7 266 137 
439 24 267 23 
440 137 261 259 
441 49 322 150 
442 218 239 234 
443 14 270 13 
444 190 269 156 
445 186 272 183 
446 169 274 166 
447 152 338 206 
448 211 212 210 
449 16 276 15 
450 163 311 162 
451 60 268 61 
452 182 291 179 
453 256 333 257 
454 22 294 21 
455 222 242 228 
456 137 263 261 
457 18 295 17 
458 75 277 76 
459 134 243 242 
460 178 296 175 
461 200 278 201 
462 219 220 217 
463 289 290 206 
464 235 302 128 
465 174 298 170 
466 216 337 325 
467 20 300 19 
468 258 278 200 
469 150 322 304 
470 52 303 4 
471 73 131 74 
472 223 326 214 
473 191 306 187 
474 301 330 324 
475 196 256 200 
476 70 288 71 
477 99 128 100 
478 78 286 79 
479 210 304 208 
480 107 309 80 
481 269 306 112 
482 127 302 235 
483 280 281 107 
484 212 213 151 
485 187 305 188 
486 211 232 231 
487 81 310 82 
488 221 224 222 
489 107 286 280 
490 209 210 208 
491 68 297 69 
492 101 127 102 
493 255 335 284 
494 128 250 245 
495 281 309 107 
496 210 212 151 
497 57 215 58 
498 162 311 193 
499 79 107 80 
500 6 275 153 
501 5 125 56 
502 82 108 83 
503 258 279 278 
504 207 208 152 
505 76 106 77 
506 238 299 215 
507 284 331 283 
508 102 318 103 
509 167 320 164 
510 259 261 260 
511 142 251 152 
512 103 126 104 
513 100 302 101 
514 146 314 290 
515 59 143 60 
516 58 299 59 
517 192 312 172 
518 221 222 220 
519 152 251 149 
520 289 307 288 
521 94 135 95 
522 84 287 285 
523 96 136 97 
524 137 266 249 
525 227 329 150 
526 248 264 263 
527 256 319 132 
528 83 287 84 
529 105 329 227 
530 124 233 228 
531 71 199 72 
532 202 307 205 
533 97 292 98 
534 63 147 64 
535 148 316 315 
536 90 340 91 
537 144 289 288 
538 85 140 86 
539 237 238 215 
540 64 339 65 
541 201 202 197 
542 263 313 261 
543 229 245 225 
544 131 327 203 
545 69 144 70 
546 248 332 264 
547 61 145 62 
548 30 321 193 
549 230 235 229 
550 192 323 27 
551 265 332 135 
552 224 242 222 
553 254 341 255 
554 193 311 109 
555 109 312 192 
556 67 146 68 
557 245 246 225 
558 205 206 198 
559 93 342 94 
560 91 141 92 
561 244 320 129 
562 172 312 244 
563 73 240 131 
564 144 297 290 
565 311 312 109 
566 273 318 127 
567 151 304 210 
568 57 236 215 
569 125 236 56 
570 262 335 255 
571 290 297 146 
572 92 343 93 
573 87 138 88 
574 5 241 125 
575 216 308 213 
576 287 331 285 
577 126 318 273 
578 89 139 90 
579 208 304 142 
580 325 337 161 
581 213 226 151 
582 126 241 104 
583 138 336 317 
584 128 302 100 
585 254 333 271 
586 228 242 124 
587 65 148 66 
588 280 286 279 
589 317 324 138 
590 132 333 256 
591 309 310 81 
592 101 302 127 
593 190 306 269 
594 248 249 247 
595 127 318 102 
596 144 290 289 
597 76 277 106 
598 248 263 249 
599 79 286 107 
600 215 299 58 
601 259 275 137 
602 313 330 301 
603 82 310 108 
604 257 280 258 
605 143 268 60 
606 246 247 225 
607 242 243 124 
608 103 318 126 
609 199 240 72 
610 199 307 240 
611 59 299 143 
612 51 303 194 
613 249 266 134 
614 108 287 83 
615 316 339 147 
616 282 333 254 
617 125 239 236 
618 285 335 140 
619 206 338 198 
620 220 337 217 
621 236 237 215 
622 61 268 145 
623 71 288 199 
624 315 316 209 
625 216 325 308 
626 136 292 97 
627 124 334 233 
628 330 344 141 
629 62 293 63 
630 144 288 70 
631 213 308 226 
632 236 239 237 
633 203 278 277 
634 69 297 144 
635 255 341 253 
636 94 342 135 
637 147 339 64 
638 63 293 147 
639 146 297 68 
640 145 293 62 
641 277 278 106 
642 271 333 132 
643 108 331 287 
644 237 326 238 
645 153 275 259 
646 141 340 330 
647 91 340 141 
648 233 334 154 
649 238 326 223 
650 288 307 199 
651 330 340 139 
652 141 343 92 
653 139 340 90 
654 141 344 343 
655 93 343 342 
656 335 336 140 
657 65 339 148 
658 201 278 203 
659 258 280 279 
660 264 344 313 
661 284 335 285 
662 203 327 201 
663 235 245 229 
664 264 332 265 
665 261 313 301 
666 148 339 316 
667 205 307 289 
668 304 322 142 
669 285 331 284 
670 260 317 262 
671 301 317 260 
672 314 315 207 
673 317 336 262 
674 301 324 317 
675 343 344 265 
676 308 325 160 
677 313 344 330 
678 262 336 335 
679 328 332 248 
680 342 343 265 
681 265 344 264 
682 6 252 1 
683 142 322 49 
684 50 251 142 
685 66 146 67 
686 66 148 146 
687 95 136 96 
688 135 136 95 
$EndElements
